<?xml version="1.0" encoding="UTF-8"?>
<svg xmlns="http://www.w3.org/2000/svg" width="160" height="49" viewBox="0 0 160 49" fill="none">
  <path d="M24 48.5C10.7467 48.5 0 37.7533 0 24.5H24V48.5Z" fill="#703BF7"></path>
  <path d="M0 0.5C13.2533 0.5 24 11.2467 24 24.5H0V0.5Z" fill="#703BF7"></path>
  <path d="M24 48.5C37.2533 48.5 48 37.7533 48 24.5H24V48.5Z" fill="#703BF7"></path>
  <path d="M48 24.5C48 11.2467 37.2533 0.5 24 0.5V24.5H48Z" fill="#703BF7"></path>
  <path d="M156.82 35.3603V27.3535C156.82 26.4286 156.522 25.6674 155.924 25.07C155.346 24.4726 154.595 24.174 153.67 24.174C153.053 24.174 152.504 24.3088 152.022 24.5786C151.54 24.8484 151.165 25.2242 150.895 25.7059C150.625 26.1877 150.49 26.7369 150.49 27.3535L149.247 26.6598C149.247 25.5999 149.478 24.6653 149.941 23.856C150.403 23.0274 151.039 22.3818 151.849 21.9193C152.677 21.4376 153.602 21.1967 154.624 21.1967C155.664 21.1967 156.589 21.4665 157.398 22.0061C158.208 22.5264 158.844 23.2104 159.306 24.0583C159.769 24.887 160 25.7541 160 26.6598V35.3603H156.82ZM147.311 35.3603V21.4858H150.49V35.3603H147.311Z" fill="white"></path>
  <path d="M140.565 35.3603V21.4858H143.745V35.3603H140.565ZM142.155 18.9421C141.615 18.9421 141.162 18.7591 140.796 18.3929C140.449 18.0268 140.276 17.574 140.276 17.0344C140.276 16.4948 140.449 16.042 140.796 15.6758C141.162 15.3097 141.615 15.1266 142.155 15.1266C142.714 15.1266 143.166 15.3097 143.513 15.6758C143.86 16.042 144.034 16.4948 144.034 17.0344C144.034 17.574 143.86 18.0268 143.513 18.3929C143.166 18.7591 142.714 18.9421 142.155 18.9421Z" fill="white"></path>
  <path d="M131.541 35.6493C130.154 35.6493 128.901 35.341 127.783 34.7244C126.685 34.0885 125.808 33.2213 125.153 32.1229C124.517 31.0245 124.199 29.7912 124.199 28.423C124.199 27.0548 124.517 25.8312 125.153 24.7521C125.789 23.6537 126.647 22.7865 127.726 22.1506C128.824 21.5147 130.038 21.1967 131.368 21.1967C132.659 21.1967 133.796 21.4954 134.779 22.0928C135.781 22.6902 136.561 23.5091 137.12 24.5497C137.698 25.5903 137.987 26.7754 137.987 28.1051C137.987 28.3363 137.968 28.5772 137.929 28.8277C137.91 29.0589 137.871 29.3191 137.814 29.6081H126.425V27.0067H136.166L134.981 28.0473C134.942 27.1994 134.779 26.4864 134.489 25.9083C134.2 25.3302 133.786 24.887 133.247 24.5786C132.726 24.2703 132.081 24.1161 131.31 24.1161C130.501 24.1161 129.797 24.2896 129.2 24.6364C128.602 24.9833 128.14 25.4747 127.812 26.1106C127.485 26.7273 127.321 27.4692 127.321 28.3363C127.321 29.2035 127.494 29.9646 127.841 30.6198C128.188 31.275 128.68 31.7857 129.315 32.1518C129.951 32.4987 130.684 32.6721 131.512 32.6721C132.225 32.6721 132.88 32.5468 133.478 32.2963C134.094 32.0458 134.615 31.6797 135.039 31.1979L137.062 33.2502C136.388 34.0403 135.569 34.6377 134.605 35.0423C133.642 35.447 132.62 35.6493 131.541 35.6493Z" fill="white"></path>
  <path d="M116.677 35.3603V15.7047H119.856V35.3603H116.677ZM113.353 24.3763V21.4858H123.18V24.3763H113.353Z" fill="white"></path>
  <path d="M103.609 35.6493C102.357 35.6493 101.22 35.3314 100.198 34.6955C99.1964 34.0596 98.3967 33.202 97.7993 32.1229C97.2212 31.0245 96.9321 29.8008 96.9321 28.4519C96.9321 27.0838 97.2212 25.8601 97.7993 24.781C98.3967 23.6826 99.1964 22.8154 100.198 22.1795C101.22 21.5243 102.357 21.1967 103.609 21.1967C104.669 21.1967 105.604 21.428 106.413 21.8904C107.242 22.3337 107.897 22.9503 108.379 23.7404C108.86 24.5305 109.101 25.4265 109.101 26.4286V30.4175C109.101 31.4195 108.86 32.3156 108.379 33.1057C107.916 33.8958 107.271 34.522 106.442 34.9845C105.613 35.4277 104.669 35.6493 103.609 35.6493ZM104.13 32.6432C105.305 32.6432 106.249 32.2482 106.962 31.4581C107.695 30.668 108.061 29.6563 108.061 28.423C108.061 27.5944 107.897 26.8621 107.569 26.2262C107.242 25.5903 106.779 25.0989 106.182 24.7521C105.604 24.3859 104.92 24.2029 104.13 24.2029C103.359 24.2029 102.675 24.3859 102.077 24.7521C101.499 25.0989 101.037 25.5903 100.69 26.2262C100.362 26.8621 100.198 27.5944 100.198 28.423C100.198 29.2516 100.362 29.9839 100.69 30.6198C101.037 31.2557 101.499 31.7568 102.077 32.1229C102.675 32.4698 103.359 32.6432 104.13 32.6432ZM107.858 35.3603V31.6315L108.408 28.2496L107.858 24.8966V21.4858H111.038V35.3603H107.858Z" fill="white"></path>
  <path d="M89.3798 35.3603V15.7047H92.5593V35.3603H89.3798ZM86.0557 24.3763V21.4858H95.8834V24.3763H86.0557Z" fill="white"></path>
  <path d="M79.3879 35.6493C78.6171 35.6493 77.8752 35.553 77.1622 35.3603C76.4492 35.1483 75.794 34.8593 75.1966 34.4931C74.5992 34.1077 74.079 33.6452 73.6357 33.1057L75.6591 31.0823C76.1409 31.6411 76.6901 32.0651 77.3067 32.3541C77.9426 32.6239 78.6556 32.7588 79.4457 32.7588C80.1587 32.7588 80.6983 32.6528 81.0644 32.4409C81.4305 32.2289 81.6136 31.9206 81.6136 31.5159C81.6136 31.0919 81.4402 30.7644 81.0933 30.5331C80.7464 30.3019 80.2936 30.1092 79.7347 29.955C79.1952 29.7816 78.6171 29.6081 78.0004 29.4347C77.4031 29.2613 76.825 29.03 76.2661 28.741C75.7266 28.4327 75.2833 28.0184 74.9365 27.4981C74.5896 26.9778 74.4162 26.3033 74.4162 25.4747C74.4162 24.5883 74.6185 23.8271 75.0232 23.1912C75.4471 22.5553 76.0349 22.0639 76.7864 21.717C77.5572 21.3701 78.4726 21.1967 79.5324 21.1967C80.6501 21.1967 81.6329 21.3991 82.4807 21.8037C83.3479 22.1891 84.0705 22.7769 84.6486 23.5669L82.6253 25.5903C82.2206 25.0893 81.7581 24.7135 81.2378 24.463C80.7175 24.2125 80.1202 24.0872 79.4457 24.0872C78.8098 24.0872 78.3184 24.1836 77.9715 24.3763C77.6247 24.569 77.4512 24.8484 77.4512 25.2145C77.4512 25.5999 77.6247 25.8986 77.9715 26.1106C78.3184 26.3226 78.7616 26.5056 79.3012 26.6598C79.86 26.814 80.4381 26.9874 81.0355 27.1801C81.6521 27.3535 82.2302 27.604 82.7698 27.9316C83.3286 28.24 83.7815 28.6639 84.1283 29.2035C84.4752 29.7238 84.6486 30.4079 84.6486 31.2557C84.6486 32.6047 84.1765 33.6741 83.2323 34.4642C82.288 35.2543 81.0066 35.6493 79.3879 35.6493Z" fill="white"></path>
  <path d="M58.2339 35.3603V15.1266H61.558V35.3603H58.2339ZM60.5174 35.3603V32.3253H71.8483V35.3603H60.5174ZM60.5174 26.4864V23.567H70.8655V26.4864H60.5174ZM60.5174 18.1617V15.1266H71.7037V18.1617H60.5174Z" fill="white"></path>
</svg>
